o LedSocket
v 0.1 0 0.01
v 0.098078528040323049 0.019509032201612826 0.01
v 0.098078528040323049 0.019509032201612826 0.1
v 0.1 0 0.1
v 0.092387953251128682 0.038268343236508982 0.01
v 0.092387953251128682 0.038268343236508982 0.1
v 0.083146961230254529 0.055557023301960218 0.01
v 0.083146961230254529 0.055557023301960218 0.1
v 0.070710678118654766 0.070710678118654752 0.01
v 0.070710678118654766 0.070710678118654752 0.1
v 0.055557023301960232 0.083146961230254529 0.01
v 0.055557023301960232 0.083146961230254529 0.1
v 0.038268343236508989 0.092387953251128682 0.01
v 0.038268343236508989 0.092387953251128682 0.1
v 0.019509032201612833 0.098078528040323049 0.01
v 0.019509032201612833 0.098078528040323049 0.1
v 6.1230317691118864E-18 0.1 0.01
v 6.1230317691118864E-18 0.1 0.1
v -0.0195090322016128 0.098078528040323062 0.01
v -0.0195090322016128 0.098078528040323062 0.1
v -0.038268343236508975 0.092387953251128682 0.01
v -0.038268343236508975 0.092387953251128682 0.1
v -0.055557023301960232 0.083146961230254515 0.01
v -0.055557023301960232 0.083146961230254515 0.1
v -0.070710678118654752 0.070710678118654766 0.01
v -0.070710678118654752 0.070710678118654766 0.1
v -0.083146961230254543 0.055557023301960218 0.01
v -0.083146961230254543 0.055557023301960218 0.1
v -0.092387953251128682 0.038268343236508989 0.01
v -0.092387953251128682 0.038268343236508989 0.1
v -0.098078528040323049 0.019509032201612819 0.01
v -0.098078528040323049 0.019509032201612819 0.1
v -0.1 1.2246063538223773E-17 0.01
v -0.1 1.2246063538223773E-17 0.1
v -0.098078528040323062 -0.019509032201612792 0.01
v -0.098078528040323062 -0.019509032201612792 0.1
v -0.0923879532511287 -0.038268343236508927 0.01
v -0.0923879532511287 -0.038268343236508927 0.1
v -0.083146961230254529 -0.055557023301960232 0.01
v -0.083146961230254529 -0.055557023301960232 0.1
v -0.070710678118654766 -0.070710678118654752 0.01
v -0.070710678118654766 -0.070710678118654752 0.1
v -0.0555570233019603 -0.083146961230254487 0.01
v -0.0555570233019603 -0.083146961230254487 0.1
v -0.038268343236508955 -0.0923879532511287 0.01
v -0.038268343236508955 -0.0923879532511287 0.1
v -0.019509032201612868 -0.098078528040323035 0.01
v -0.019509032201612868 -0.098078528040323035 0.1
v -1.836909530733566E-17 -0.1 0.01
v -1.836909530733566E-17 -0.1 0.1
v 0.019509032201612833 -0.098078528040323049 0.01
v 0.019509032201612833 -0.098078528040323049 0.1
v 0.038268343236509 -0.092387953251128668 0.01
v 0.038268343236509 -0.092387953251128668 0.1
v 0.05555702330196019 -0.083146961230254557 0.01
v 0.05555702330196019 -0.083146961230254557 0.1
v 0.070710678118654738 -0.070710678118654766 0.01
v 0.070710678118654738 -0.070710678118654766 0.1
v 0.083146961230254529 -0.055557023301960218 0.01
v 0.083146961230254529 -0.055557023301960218 0.1
v 0.0923879532511287 -0.038268343236508962 0.01
v 0.0923879532511287 -0.038268343236508962 0.1
v 0.098078528040323035 -0.019509032201612875 0.01
v 0.098078528040323035 -0.019509032201612875 0.1
vn 0.1 0 0
vn 0.098078528040323049 0.019509032201612826 0
vn 0.092387953251128682 0.038268343236508982 0
vn 0.083146961230254529 0.055557023301960218 0
vn 0.070710678118654766 0.070710678118654752 0
vn 0.055557023301960232 0.083146961230254529 0
vn 0.038268343236508989 0.092387953251128682 0
vn 0.019509032201612833 0.098078528040323049 0
vn 6.1230317691118864E-18 0.1 0
vn -0.0195090322016128 0.098078528040323062 0
vn -0.038268343236508975 0.092387953251128682 0
vn -0.055557023301960232 0.083146961230254515 0
vn -0.070710678118654752 0.070710678118654766 0
vn -0.083146961230254543 0.055557023301960218 0
vn -0.092387953251128682 0.038268343236508989 0
vn -0.098078528040323049 0.019509032201612819 0
vn -0.1 1.2246063538223773E-17 0
vn -0.098078528040323062 -0.019509032201612792 0
vn -0.0923879532511287 -0.038268343236508927 0
vn -0.083146961230254529 -0.055557023301960232 0
vn -0.070710678118654766 -0.070710678118654752 0
vn -0.0555570233019603 -0.083146961230254487 0
vn -0.038268343236508955 -0.0923879532511287 0
vn -0.019509032201612868 -0.098078528040323035 0
vn -1.836909530733566E-17 -0.1 0
vn 0.019509032201612833 -0.098078528040323049 0
vn 0.038268343236509 -0.092387953251128668 0
vn 0.05555702330196019 -0.083146961230254557 0
vn 0.070710678118654738 -0.070710678118654766 0
vn 0.083146961230254529 -0.055557023301960218 0
vn 0.0923879532511287 -0.038268343236508962 0
vn 0.098078528040323035 -0.019509032201612875 0
vn 0 0 -1
vn 0 0 1
g LedSocket
f 1//1 2//2 3//2 4//1
f 2//2 5//3 6//3 3//2
f 5//3 7//4 8//4 6//3
f 7//4 9//5 10//5 8//4
f 9//5 11//6 12//6 10//5
f 11//6 13//7 14//7 12//6
f 13//7 15//8 16//8 14//7
f 15//8 17//9 18//9 16//8
f 17//9 19//10 20//10 18//9
f 19//10 21//11 22//11 20//10
f 21//11 23//12 24//12 22//11
f 23//12 25//13 26//13 24//12
f 25//13 27//14 28//14 26//13
f 27//14 29//15 30//15 28//14
f 29//15 31//16 32//16 30//15
f 31//16 33//17 34//17 32//16
f 33//17 35//18 36//18 34//17
f 35//18 37//19 38//19 36//18
f 37//19 39//20 40//20 38//19
f 39//20 41//21 42//21 40//20
f 41//21 43//22 44//22 42//21
f 43//22 45//23 46//23 44//22
f 45//23 47//24 48//24 46//23
f 47//24 49//25 50//25 48//24
f 49//25 51//26 52//26 50//25
f 51//26 53//27 54//27 52//26
f 53//27 55//28 56//28 54//27
f 55//28 57//29 58//29 56//28
f 57//29 59//30 60//30 58//29
f 59//30 61//31 62//31 60//30
f 61//31 63//32 64//32 62//31
f 63//32 1//1 4//1 64//32
f 63//33 61//33 59//33 57//33 55//33 53//33 51//33 49//33 47//33 45//33 43//33 41//33 39//33 37//33 35//33 33//33 31//33 29//33 27//33 25//33 23//33 21//33 19//33 17//33 15//33 13//33 11//33 9//33 7//33 5//33 2//33 1//33
f 4//34 3//34 6//34 8//34 10//34 12//34 14//34 16//34 18//34 20//34 22//34 24//34 26//34 28//34 30//34 32//34 34//34 36//34 38//34 40//34 42//34 44//34 46//34 48//34 50//34 52//34 54//34 56//34 58//34 60//34 62//34 64//34
