o Switch
v -1.5 -0.5 -0.75
v -3 14.5 -1.5
v 3 14.5 -1.5
v 1.5 -0.5 -0.75
v 1.5 -0.5 0.74999999999999978
v 3 14.5 1.4999999999999996
v -3 14.5 1.5000000000000004
v -1.5 -0.5 0.75000000000000022
v -1.5 -0.5 0.75
v -3 14.5 1.5
v -3.5 14.5 1
v -2 -0.5 0.25
v -3.5 14.5 -1
v -2 -0.5 -0.25
v -3 15 1
v -3 15 -1
v 3 14.5 1.5
v 3 15 1
v 3 15 -1
v 3.5 14.5 1
v 3.5 14.5 -1
v 1.5 -0.5 0.75
v 2 -0.5 0.25
v 2 -0.5 -0.25
vn 0 0 -1
vn 1.2246063538223773E-16 0 1
vn 0 0 1
vn -0.70316255393463 -0.1054743830901945 0.70316255393463
vn -0.70316255393463 -0.1054743830901945 -0.70316255393463
vn 0 0.70710678118654757 0.70710678118654757
vn 0 0.70710678118654757 -0.70710678118654757
vn 0.70316255393463 -0.1054743830901945 0.70316255393463
vn 0.70316255393463 -0.1054743830901945 -0.70316255393463
g Switch
f 1//1 2//1 3//1 4//1
f 5//2 6//2 7//2 8//2
f 9//3 10//3 11//4 12//4
f 12//4 11//4 13//5 14//5
f 14//5 13//5 2//1 1//1
f 10//3 15//6 11//4
f 11//4 15//6 16//7 13//5
f 13//5 16//7 2//1
f 10//3 17//3 18//6 15//6
f 15//6 18//6 19//7 16//7
f 16//7 19//7 3//1 2//1
f 17//3 20//8 18//6
f 18//6 20//8 21//9 19//7
f 19//7 21//9 3//1
f 17//3 22//3 23//8 20//8
f 20//8 23//8 24//9 21//9
f 21//9 24//9 4//1 3//1
